# xmcd
#
# Track frame offsets:
#	182
#	14040
#	25275
#	36537
#	48877
#	63185
#	75750
#	87687
#	103517
#	116735
#	125740
#	138140
#	150762
#	162662
#
# Disc length: 2336 seconds
#
# Revision: 3
# Processed by: cddbd v1.5.2PL0 Copyright (c) Steve Scherf et al.
# Submitted via: audiograbber 1.83.01
#
DISCID=b2091e0e
DTITLE=Matt Monro - Musica para soñar [CD1]
DYEAR=1991
DGENRE=Melodico
TTITLE0=Alguien canto
TTITLE1=Stranger in the ningt
TTITLE2=Let's face the music and dance
TTITLE3=La montaña
TTITLE4=Fly me to the moon
TTITLE5=Libre
TTITLE6=People
TTITLE7=No puedo quitar mis ojos de ti
TTITLE8=My kind of girl
TTITLE9=Lo que quedo
TTITLE10=The imposible dream
TTITLE11=A man and a woman
TTITLE12=Si tu te vas
TTITLE13=Love is a many splendored thing
EXTD=Year: 1991
EXTT0=
EXTT1=
EXTT2=
EXTT3=
EXTT4=
EXTT5=
EXTT6=
EXTT7=
EXTT8=
EXTT9=
EXTT10=
EXTT11=
EXTT12=
EXTT13=
PLAYORDER=
